<svg width="17" height="18" viewBox="0 0 17 18" fill="none" xmlns="http://www.w3.org/2000/svg">
<path d="M16.1569 14.7605C16.6001 10.501 16.6001 6.20698 16.1569 1.94749C16.0183 0.61518 14.4822 -0.0597014 13.4071 0.739414L9.30351 3.78982C8.00994 4.75139 6.44101 5.27064 4.8292 5.27064H1C0.447716 5.27064 0 5.71836 0 6.27064V10.4373C0 10.9896 0.447714 11.4373 1 11.4373L4.82919 11.4373C6.44101 11.4373 8.00994 11.9566 9.30351 12.9181L13.4071 15.9685C14.4822 16.7677 16.0183 16.0928 16.1569 14.7605Z" fill="#FF4264"/>
<path d="M5.41342 13.656C5.47086 13.4315 5.42135 13.1931 5.27928 13.0101C5.13721 12.8271 4.91853 12.72 4.68684 12.72L2.68684 12.72C2.40276 12.72 2.14306 12.8805 2.01602 13.1346L1.01602 15.1346C0.845244 15.4761 0.958358 15.8915 1.27874 16.0992L3.41271 17.4832C3.61532 17.6146 3.8688 17.6404 4.09373 17.5526C4.31866 17.4647 4.48752 17.2739 4.54739 17.0399L5.41342 13.656Z" fill="#FF4264"/>
</svg>
