<svg width="14" height="20" viewBox="0 0 14 20" fill="none" xmlns="http://www.w3.org/2000/svg">
<path d="M11.2821 1.25902C8.55212 0.801354 5.75032 0.801354 3.02037 1.25902C2.02302 1.42622 1.22876 2.19189 1.02878 3.18466C0.112665 7.73276 0.062679 12.4128 0.881449 16.9795L1.2148 18.8387C1.31759 19.412 2.01649 19.6411 2.43875 19.24L6.46247 15.4174C6.84843 15.0508 7.454 15.0508 7.83997 15.4174L11.8637 19.24C12.2859 19.6411 12.9848 19.412 13.0876 18.8387L13.421 16.9795C14.2398 12.4128 14.1898 7.73275 13.2737 3.18466C13.0737 2.19189 12.2794 1.42622 11.2821 1.25902Z" fill="#FF4264"/>
</svg>
