<svg width="15" height="20" viewBox="0 0 15 20" fill="none" xmlns="http://www.w3.org/2000/svg">
<path fill-rule="evenodd" clip-rule="evenodd" d="M11.8254 2.72998C9.23227 2.29525 6.57016 2.29525 3.97704 2.72998C3.48904 2.81179 3.10145 3.18672 3.00417 3.66965C2.1191 8.06363 2.0708 12.5851 2.86183 16.997L3.02538 17.9092L6.69591 14.4222C7.37135 13.7805 8.43109 13.7805 9.10653 14.4222L12.7771 17.9092L12.9406 16.997C13.7316 12.5851 13.6833 8.06363 12.7983 3.66965C12.701 3.18672 12.3134 2.81179 11.8254 2.72998ZM3.72903 1.25062C6.48635 0.788367 9.31609 0.788367 12.0734 1.25062C13.1726 1.4349 14.0482 2.27872 14.2687 3.37346C15.1911 7.95237 15.2414 12.6642 14.4171 17.2617L14.1956 18.497C14.0097 19.5339 12.7456 19.9483 11.9819 19.2228L8.07341 15.5097C7.97691 15.418 7.82552 15.418 7.72903 15.5097L3.8205 19.2228C3.0568 19.9483 1.79276 19.5339 1.60686 18.497L1.38537 17.2617C0.561054 12.6642 0.611379 7.95237 1.53371 3.37346C1.75422 2.27872 2.62982 1.4349 3.72903 1.25062Z" fill="black"/>
</svg>
