<svg width="current" height="current" viewBox="0 0 30 24" fill="none" xmlns="http://www.w3.org/2000/svg">
<path d="M8.53657 8.51896C7.38118 8.51896 6.44454 9.4556 6.44454 10.611C6.44454 11.7664 7.38118 12.703 8.53657 12.703C9.69197 12.703 10.6286 11.7664 10.6286 10.611C10.6286 9.4556 9.69197 8.51896 8.53657 8.51896Z" fill="current"/>
<path d="M15.2311 8.51896C14.0757 8.51896 13.139 9.4556 13.139 10.611C13.139 11.7664 14.0757 12.703 15.2311 12.703C16.3865 12.703 17.3231 11.7664 17.3231 10.611C17.3231 9.4556 16.3865 8.51896 15.2311 8.51896Z" fill="current"/>
<path d="M19.8335 10.611C19.8335 9.4556 20.7702 8.51896 21.9256 8.51896C23.081 8.51896 24.0176 9.4556 24.0176 10.611C24.0176 11.7664 23.081 12.703 21.9256 12.703C20.7702 12.703 19.8335 11.7664 19.8335 10.611Z" fill="current"/>
<path fill-rule="evenodd" clip-rule="evenodd" d="M22.0942 0.306135C17.5851 -0.078397 13.0525 -0.100713 8.53982 0.239402L8.21642 0.263776C3.91302 0.588121 0.586853 4.17442 0.586853 8.49002V22.7448C0.586853 23.1864 0.818928 23.5955 1.19797 23.8221C1.57702 24.0488 2.04727 24.0595 2.43627 23.8504L8.98147 20.333C9.28592 20.1693 9.62617 20.0837 9.9718 20.0837H24.9949C26.8896 20.0837 28.5134 18.7291 28.853 16.8651C29.5413 13.0873 29.5957 9.22131 29.0139 5.42568L28.8424 4.30716C28.5303 2.27077 26.8644 0.712939 24.8117 0.537884L22.0942 0.306135ZM8.7285 2.74274C13.1073 2.41271 17.5055 2.43437 21.8808 2.80749L24.5984 3.03924C25.496 3.11579 26.2245 3.79702 26.361 4.68752L26.5324 5.80605C27.072 9.32616 27.0216 12.9115 26.3832 16.4151C26.261 17.0858 25.6767 17.5733 24.9949 17.5733H9.9718C9.21141 17.5733 8.46286 17.7617 7.79307 18.1216L3.09729 20.6452V8.49002C3.09729 5.4877 5.41127 2.99276 8.4051 2.76711L8.7285 2.74274Z" fill="current"/>
</svg>
