<svg width="15" height="21" viewBox="0 0 15 21" fill="none" xmlns="http://www.w3.org/2000/svg">
<path fill-rule="evenodd" clip-rule="evenodd" d="M5.75666 0.258036C5.93839 0.0489452 6.22057 -0.042948 6.49057 0.0190382C10.0994 0.847554 11.9235 4.80217 11.4945 8.3403C11.3278 9.71568 10.9158 10.7939 10.3092 11.6518C10.3055 11.6571 10.3017 11.6623 10.298 11.6675C10.4358 11.5998 10.5629 11.5267 10.6819 11.4495C11.2738 11.0653 11.7083 10.5583 12.2739 9.89811C12.3423 9.81832 12.4126 9.73629 12.4853 9.65196C12.6487 9.46247 12.8959 9.36695 13.1442 9.39729C13.3926 9.42764 13.6095 9.57985 13.7225 9.80312C14.22 10.7863 14.5 11.8979 14.5 13.0726C14.5 17.0767 11.2541 20.3226 7.25 20.3226C3.24594 20.3226 0 17.0767 0 13.0726C0 10.5356 1.30371 8.3035 3.27431 7.00906L3.34187 6.94098C3.37658 6.90601 3.41464 6.87454 3.45552 6.84703C4.32138 6.2644 4.94312 5.78786 5.36171 5.22743C5.75713 4.69801 6 4.0522 6 3.07264C6 2.34736 5.86608 1.65512 5.62229 1.01809C5.52327 0.759361 5.57494 0.467126 5.75666 0.258036ZM7.42122 2.00081C7.47313 2.35079 7.5 2.70872 7.5 3.07264C7.5 4.34106 7.17229 5.30995 6.56349 6.12505C5.99173 6.89054 5.20028 7.47847 4.35466 8.0499L4.28236 8.12275C4.24362 8.16179 4.20071 8.19644 4.15439 8.2261C2.55648 9.24913 1.5 11.0377 1.5 13.0726C1.5 16.2483 4.07436 18.8226 7.25 18.8226C10.4256 18.8226 13 16.2483 13 13.0726C13 12.5528 12.9312 12.0497 12.8023 11.5717C12.4221 11.9834 12.0024 12.3807 11.4985 12.7077C10.5753 13.3069 9.41993 13.649 7.75 13.649C7.40775 13.649 7.10891 13.4173 7.02364 13.0858C6.93838 12.7544 7.08833 12.4072 7.38811 12.2421C8.06692 11.8681 8.64232 11.411 9.08445 10.7857C9.52567 10.1618 9.86371 9.32875 10.0055 8.15975C10.3123 5.629 9.26494 3.13107 7.42122 2.00081Z" fill="black"/>
</svg>
