<svg width="15" height="21" viewBox="0 0 14 20" fill="none" xmlns="http://www.w3.org/2000/svg">
<path d="M6.81254 0.704732C6.52291 0.577747 6.23765 0.666582 6.05414 0.853469C5.87588 1.03501 5.78673 1.31208 5.84923 1.59144C5.9479 2.03238 6 2.49113 6 2.96235C6 4.03819 5.72885 4.7917 5.2623 5.41634C4.78803 6.05133 4.10149 6.56828 3.23466 7.15157C3.22103 7.16074 3.20834 7.17123 3.19678 7.18288L3.09179 7.28868C1.23195 8.49023 0 10.5823 0 12.9623C0 16.6903 3.02208 19.7123 6.75 19.7123C10.4779 19.7123 13.5 16.6903 13.5 12.9623C13.5 11.8678 13.2393 10.8334 12.7764 9.91858C12.7387 9.84416 12.6664 9.79342 12.5836 9.78331C12.5008 9.77319 12.4184 9.80503 12.364 9.8682C12.2935 9.94995 12.2244 10.0306 12.1564 10.1101C11.2781 11.1363 10.5693 11.9645 9.11616 12.3344C9.05436 12.3501 9.01597 12.3384 8.98873 12.3214C8.95667 12.3014 8.9216 12.2614 8.89757 12.1975C8.84748 12.0644 8.86897 11.8946 8.97161 11.7833C9.74879 10.9407 10.3009 9.79694 10.4982 8.16982C10.8677 5.12192 9.48249 1.87533 6.81254 0.704732Z" fill="#FF4264"/>
</svg>
