<svg width="current" height="current" viewBox="0 0 22 22" fill="none" xmlns="http://www.w3.org/2000/svg">
<path fill-rule="evenodd" clip-rule="evenodd" d="M12.8685 2.55058C11.8243 1.54864 10.1757 1.54864 9.13155 2.55058L3.58253 7.87518C3.44657 8.00564 3.35512 8.17558 3.32113 8.36092C2.6565 11.9854 2.60744 15.6959 3.17601 19.3367L3.31097 20.2009H6.88098V12.7509C6.88098 12.2541 7.28373 11.8514 7.78055 11.8514H14.2195C14.7163 11.8514 15.1191 12.2541 15.1191 12.7509V20.2009H18.6891L18.824 19.3367C19.3926 15.6959 19.3436 11.9854 18.6789 8.36092C18.6449 8.17558 18.5535 8.00564 18.4175 7.87519L12.8685 2.55058ZM7.8859 1.25243C9.62619 -0.417476 12.3739 -0.417476 14.1142 1.25243L19.6632 6.57703C20.0717 6.969 20.3464 7.47958 20.4485 8.03642C21.1496 11.8597 21.2014 15.7738 20.6016 19.6143L20.3848 21.0026C20.2951 21.5767 19.8006 22 19.2195 22H14.2195C13.7227 22 13.32 21.5973 13.32 21.1004V13.6505H8.68011V21.1004C8.68011 21.5973 8.27736 22 7.78055 22H2.78051C2.19941 22 1.70491 21.5767 1.61525 21.0026L1.39844 19.6143C0.798671 15.7738 0.850423 11.8597 1.55152 8.03642C1.65363 7.47958 1.92839 6.969 2.33688 6.57703L7.8859 1.25243Z" fill="current"/>
</svg>
