<?xml version="1.0" encoding="utf-8"?>
<svg version="1.1" id="레이어_1" xmlns="http://www.w3.org/2000/svg" xmlns:xlink="http://www.w3.org/1999/xlink" x="0px"
	 y="0px" viewBox="0 0 35 35" 
	 width='current' height='current' style="enable-background:new 0 0 35 35;" xml:space="preserve">
<style type="text/css">
	.st0{fill:#FF4263;stroke:#FF4263;stroke-linejoin:round;stroke-miterlimit:10;}
	.st1{fill:#FFFFFF;}
	.st2{fill:none;stroke:#FFFFFF;stroke-linecap:round;stroke-miterlimit:10;}
	.st3{fill:#FFFFFF;stroke:#FF4263;stroke-linejoin:round;stroke-miterlimit:10;}
	.st4{fill:none;stroke:#FFFFFF;stroke-miterlimit:10;}
	.st5{fill:#FFFFFF;stroke:#FFFFFF;stroke-miterlimit:10;}
	.st6{fill:none;stroke:#FF4263;stroke-miterlimit:10;}
	.st7{fill:#FF4263;stroke:#FF4263;stroke-miterlimit:10;}
	.st8{fill:#FF4263;stroke:#FF4263;stroke-width:0.5;stroke-linejoin:round;stroke-miterlimit:10;}
</style>
<g>
	<path class="st0" d="M1.8,6.1h11.5c2.3,0,4.2,1.9,4.2,4.2c0,0,0,0,0,0v18.5l0,0H1.8l0,0V6.1L1.8,6.1z"/>
	<circle class="st1" cx="5.3" cy="16.5" r="1.4"/>
	<circle class="st1" cx="13.8" cy="16.5" r="1.4"/>
	<path class="st2" d="M7.3,18.2c0,0,0,2.6,2.4,2.6s2.3-2.5,2.3-2.5"/>
	<path class="st3" d="M33.2,28.8H17.5l0,0V10.4c0-2.3,1.9-4.2,4.2-4.2h11.5l0,0V28.8L33.2,28.8L33.2,28.8z"/>
	<g>
		<path class="st4" d="M1.8,20.4c0,3.5,4.6,5.5,7.4,5.5"/>
		<ellipse class="st5" cx="10.5" cy="25.9" rx="1.5" ry="1.6"/>
	</g>
	<g>
		<path class="st6" d="M33.2,20.4c0,3.5-4.8,5.5-7.8,5.5"/>
		<circle class="st7" cx="24" cy="25.9" r="1.6"/>
	</g>
	<g>
		<circle class="st8" cx="21.4" cy="16.5" r="1.4"/>
		<circle class="st8" cx="29.9" cy="16.5" r="1.4"/>
		<path class="st8" d="M23.3,18.2c0,0,0,2.6,2.4,2.6s2.3-2.5,2.3-2.5L23.3,18.2z"/>
	</g>
</g>
</svg>
