<svg width="current" height="current" viewBox="0 0 22 22" fill="none" xmlns="http://www.w3.org/2000/svg">
<path fill-rule="evenodd" clip-rule="evenodd" d="M5.48031 5.50678C5.48031 2.46547 7.94578 0 10.9871 0C14.0284 0 16.4939 2.46547 16.4939 5.50678C16.4939 8.5481 14.0284 11.0136 10.9871 11.0136C7.94578 11.0136 5.48031 8.5481 5.48031 5.50678ZM10.9871 1.94357C9.01919 1.94357 7.42388 3.53888 7.42388 5.50678C7.42388 7.47469 9.01919 9.07 10.9871 9.07C12.955 9.07 14.5503 7.47469 14.5503 5.50678C14.5503 3.53888 12.955 1.94357 10.9871 1.94357Z" fill="current"/>
<path fill-rule="evenodd" clip-rule="evenodd" d="M5.80424 14.9007C4.19413 14.9007 2.88888 16.206 2.88888 17.8161V19.3557C2.88888 19.3792 2.90587 19.3992 2.92901 19.403C8.26574 20.2743 13.7085 20.2743 19.0452 19.403C19.0683 19.3992 19.0853 19.3792 19.0853 19.3557V17.8161C19.0853 16.206 17.7801 14.9007 16.17 14.9007H15.7283C15.6941 14.9007 15.6602 14.9061 15.6277 14.9167L14.5063 15.2829C12.2196 16.0296 9.75463 16.0296 7.46792 15.2829L6.34646 14.9167C6.31399 14.9061 6.28006 14.9007 6.24591 14.9007H5.80424ZM0.945312 17.8161C0.945312 15.1326 3.12073 12.9571 5.80424 12.9571H6.24591C6.48496 12.9571 6.7225 12.9949 6.94974 13.0691L8.0712 13.4353C9.96591 14.054 12.0083 14.054 13.903 13.4353L15.0244 13.0691C15.2517 12.9949 15.4892 12.9571 15.7283 12.9571H16.17C18.8535 12.9571 21.0289 15.1326 21.0289 17.8161V19.3557C21.0289 20.3317 20.3216 21.1639 19.3584 21.3211C13.8142 22.2263 8.15998 22.2263 2.61584 21.3211C1.65262 21.1639 0.945312 20.3317 0.945312 19.3557V17.8161Z" fill="current"/>
</svg>
