<svg width="16" height="22" viewBox="0 0 16 22" fill="none" xmlns="http://www.w3.org/2000/svg">
<path d="M6.25 0.878174C5.83579 0.878174 5.5 1.21396 5.5 1.62817V2.37817H1.25C0.835786 2.37817 0.5 2.71396 0.5 3.12817C0.5 3.54239 0.835786 3.87817 1.25 3.87817H15.25C15.6642 3.87817 16 3.54239 16 3.12817C16 2.71396 15.6642 2.37817 15.25 2.37817H11V1.62817C11 1.21396 10.6642 0.878174 10.25 0.878174H6.25Z" fill="#8C8C8C"/>
<path d="M6.25 9.27817C6.66421 9.27817 7 9.61395 7 10.0282L7 17.0282C7 17.4424 6.66421 17.7782 6.25 17.7782C5.83579 17.7782 5.5 17.4424 5.5 17.0282L5.5 10.0282C5.5 9.61395 5.83579 9.27817 6.25 9.27817Z" fill="#8C8C8C"/>
<path d="M11 10.0282C11 9.61395 10.6642 9.27817 10.25 9.27817C9.83579 9.27817 9.5 9.61395 9.5 10.0282V17.0282C9.5 17.4424 9.83579 17.7782 10.25 17.7782C10.6642 17.7782 11 17.4424 11 17.0282V10.0282Z" fill="#8C8C8C"/>
<path fill-rule="evenodd" clip-rule="evenodd" d="M2.24142 6.54535C2.28363 6.16553 2.60468 5.87817 2.98684 5.87817H13.5132C13.8953 5.87817 14.2164 6.16553 14.2586 6.54535L14.4587 8.3467C14.8215 11.612 14.8215 14.9075 14.4587 18.1728L14.439 18.3501C14.295 19.6463 13.2904 20.6798 11.9989 20.8606C9.51176 21.2088 6.98823 21.2088 4.50108 20.8606C3.20954 20.6798 2.205 19.6463 2.06098 18.3501L2.04128 18.1728C1.67846 14.9075 1.67846 11.612 2.04128 8.3467L2.24142 6.54535ZM3.65812 7.37817L3.5321 8.51234C3.18152 11.6676 3.18152 14.8519 3.5321 18.0072L3.5518 18.1845C3.62011 18.7992 4.09652 19.2894 4.70905 19.3751C7.05822 19.704 9.44177 19.704 11.7909 19.3751C12.4035 19.2894 12.8799 18.7992 12.9482 18.1845L12.9679 18.0072C13.3185 14.8519 13.3185 11.6676 12.9679 8.51234L12.8419 7.37817H3.65812Z" fill="#8C8C8C"/>
</svg>
