<svg width="current" height="current" viewBox="0 0 22 24" fill="none" xmlns="http://www.w3.org/2000/svg">
<path fill-rule="evenodd" clip-rule="evenodd" d="M15.8492 0.626267C15.6617 0.438731 15.4073 0.333374 15.1421 0.333374C14.8769 0.333374 14.6226 0.438731 14.435 0.626267L2.17851 12.8828C2.05287 13.0084 1.96298 13.1653 1.91807 13.3372L0.584742 18.4417C0.495022 18.7852 0.59414 19.1505 0.845174 19.4016C1.09621 19.6526 1.46152 19.7517 1.805 19.662L6.90957 18.3287C7.08148 18.2838 7.23832 18.1939 7.36396 18.0682L19.6205 5.81172C20.011 5.42119 20.011 4.78803 19.6205 4.3975L15.8492 0.626267ZM3.78458 14.1051L15.1421 2.74759L17.4992 5.10461L6.1416 16.4622L2.95125 17.2955L3.78458 14.1051Z" fill="current"/>
<path d="M1 21.6667C0.447715 21.6667 0 22.1144 0 22.6667C0 23.219 0.447715 23.6667 1 23.6667H21C21.5523 23.6667 22 23.219 22 22.6667C22 22.1144 21.5523 21.6667 21 21.6667H1Z" fill="current"/>
</svg>
